<svg width="32" height="32" viewBox="0 0 32 32" fill="none" xmlns="http://www.w3.org/2000/svg">
<g clip-path="url(#clip0)">
<path fill-rule="evenodd" clip-rule="evenodd" d="M31.8347 16.4387C31.9376 16.3213 32.0001 16.1676 32.0001 15.9993C32.0001 15.8026 31.9147 15.6257 31.7789 15.5036L21.1373 4.86199C20.8773 4.60199 20.4546 4.60199 20.1946 4.86199C19.9346 5.12199 19.9346 5.54468 20.1946 5.80468L29.7226 15.3327H0.666687C0.298687 15.3327 0 15.6313 0 15.9993C0 16.3673 0.298687 16.666 0.666687 16.666H29.724L20.1946 26.1955C19.9346 26.4555 19.9346 26.8782 20.1946 27.1382C20.3253 27.2675 20.4959 27.3329 20.6666 27.3329C20.8373 27.3329 21.0079 27.2676 21.1373 27.1382L31.804 16.4715C31.8147 16.4609 31.8249 16.4499 31.8347 16.4387Z" fill="black" fill-opacity="0.46"/>
</g>
<defs>
<clipPath id="clip0">
<rect width="32" height="32" fill="white"/>
</clipPath>
</defs>
</svg>
